<?xml version="1.0" encoding="UTF-8"?>
<svg version="1.1" xmlns="http://www.w3.org/2000/svg" width="512" height="512">
<path d="M0 0 C1.11755676 -0.01270432 1.11755676 -0.01270432 2.25769043 -0.02566528 C4.72217853 -0.04907731 7.18604384 -0.05005648 9.65063477 -0.04882812 C11.36312613 -0.05592726 13.0756151 -0.06362589 14.7881012 -0.07189941 C18.37849539 -0.08535391 21.96866967 -0.08690873 25.55908203 -0.08105469 C30.16073834 -0.075158 34.76133979 -0.1057435 39.36279202 -0.14617157 C42.89986356 -0.17201869 46.43668012 -0.17492873 49.97383308 -0.17127991 C51.67032586 -0.17297402 53.36683006 -0.18264454 55.06323051 -0.20042419 C57.4361012 -0.22255624 59.80682431 -0.21294402 62.1796875 -0.1953125 C63.23105644 -0.21520737 63.23105644 -0.21520737 64.30366516 -0.23550415 C68.03468264 -0.17107146 69.41091258 0.18159878 72.12171936 2.83337402 C73.65454102 5.41992187 73.65454102 5.41992187 73.65454102 7.41992188 C79.26454102 7.41992188 84.87454102 7.41992188 90.65454102 7.41992188 C90.98454102 5.76992187 91.31454102 4.11992188 91.65454102 2.41992188 C95.5567128 -0.18152598 98.84914424 0.12452749 103.37695312 0.12939453 C104.26829453 0.12267731 105.15963593 0.11596008 106.07798767 0.10903931 C109.02934314 0.09001549 111.98047177 0.08613303 114.93188477 0.08398438 C116.98067825 0.07755994 119.0294708 0.07083185 121.07826233 0.06381226 C125.37478768 0.05182883 129.67123255 0.04813257 133.96777344 0.04931641 C139.47723483 0.04951976 144.98618132 0.02220561 150.49552059 -0.01222801 C154.72740557 -0.03444811 158.95916563 -0.03852265 163.19110298 -0.03746414 C165.22251728 -0.03982702 167.25393467 -0.04868899 169.28529167 -0.06412888 C172.12480791 -0.08369171 174.96320063 -0.07798931 177.80273438 -0.06591797 C179.06449493 -0.08277649 179.06449493 -0.08277649 180.35174561 -0.09997559 C183.96144602 -0.06091581 186.19609131 0.09444394 189.17988586 2.21279907 C191.39139864 5.5227799 191.2600282 8.62569821 190.65454102 12.41992188 C189.7102386 15.00709988 188.77632887 17.21320573 187.51391602 19.62304688 C187.19046204 20.26812195 186.86700806 20.91319702 186.53375244 21.57781982 C185.85194595 22.92943105 185.16243237 24.27717989 184.46557617 25.62109375 C183.40444304 27.67011106 182.36966938 29.73087164 181.33813477 31.79492188 C180.66906856 33.11339588 179.99854466 34.4311314 179.32641602 35.74804688 C178.86522369 36.66375458 178.86522369 36.66375458 178.39471436 37.59796143 C175.95040174 42.27866828 173.77210724 45.71406647 168.65454102 47.41992188 C166.9417083 47.51010864 165.22553475 47.54188306 163.5103302 47.54017639 C161.91386909 47.54223839 161.91386909 47.54223839 160.28515625 47.54434204 C159.11774902 47.54074677 157.9503418 47.53715149 156.74755859 47.53344727 C154.90347664 47.53366631 154.90347664 47.53366631 153.0221405 47.53388977 C149.6505009 47.53331203 146.27892235 47.52829299 142.90729356 47.52131581 C139.3838915 47.51506914 135.86048865 47.51447743 132.33708191 47.51329041 C125.66480572 47.51018097 118.9925459 47.5019728 112.32027692 47.49194092 C104.72422355 47.48076775 97.1281694 47.47526629 89.53210986 47.47024548 C73.9062441 47.45978988 58.28039467 47.44219792 42.65454102 47.41992188 C42.45653648 48.09449558 42.25853195 48.76906929 42.05452728 49.46408463 C41.79052376 50.35541973 41.52652023 51.24675484 41.2545166 52.1651001 C40.99463707 53.04592381 40.73475754 53.92674751 40.46700287 54.83426285 C39.31275877 58.50764352 37.85156179 62.00439351 36.31079102 65.52929688 C35.98969864 66.27707901 35.66860626 67.02486115 35.33778381 67.79530334 C34.64431433 69.40961969 33.94857511 71.02296259 33.25076294 72.63540649 C31.32945156 77.07756655 29.42785111 81.52815262 27.52563477 85.97851562 C27.12634262 86.91197311 26.72705048 87.8454306 26.31565857 88.80717468 C21.85976007 99.24524523 17.53485648 109.73665789 13.21704102 120.23242188 C6.682478 136.10721907 0.10292133 151.96218683 -6.53295898 167.79492188 C-6.93134979 168.74549469 -7.3297406 169.6960675 -7.74020386 170.67544556 C-9.94041442 175.92425319 -12.14267577 181.1721922 -14.34545898 186.41992188 C-8.07545898 186.41992188 -1.80545898 186.41992188 4.65454102 186.41992188 C4.98454102 184.76992187 5.31454102 183.11992187 5.65454102 181.41992188 C6.14401314 180.02541522 6.67452054 178.64471792 7.24243164 177.28027344 C7.56852921 176.49046585 7.89462677 175.70065826 8.23060608 174.88691711 C8.58706711 174.03671494 8.94352814 173.18651276 9.31079102 172.31054688 C9.68493637 171.40793625 10.05908173 170.50532562 10.44456482 169.57536316 C11.67696017 166.60509145 12.91574465 163.63752896 14.15454102 160.66992188 C15.01638484 158.59596494 15.877789 156.52182524 16.73876953 154.44750977 C18.50798836 150.18684508 20.27967318 145.92721914 22.0534668 141.66845703 C24.8355092 134.9878752 27.60747672 128.30314459 30.37657166 121.6171875 C32.14811359 117.34005429 33.92146371 113.06369971 35.70019531 108.78955078 C38.91947033 101.05012355 42.11475181 93.30311547 45.24047852 85.52539062 C46.05962422 83.49961601 46.87971703 81.47422798 47.70022583 79.44900513 C48.44292565 77.60480289 49.17285551 75.75547384 49.90234375 73.90600586 C50.34263916 72.82005127 50.78293457 71.73409668 51.23657227 70.61523438 C51.61015869 69.67695801 51.98374512 68.73868164 52.36865234 67.77197266 C53.92656968 64.92234752 54.79196983 63.99408942 57.65454102 62.41992188 C60.78101638 61.96524062 63.88644539 62.00001366 67.04125977 62.01586914 C68.46627304 62.00557426 68.46627304 62.00557426 69.92007446 61.99507141 C73.06088192 61.97676727 76.20119166 61.98064577 79.34204102 61.98632812 C81.52392744 61.9817684 83.70581243 61.97646346 85.88769531 61.97044373 C90.46075271 61.96150576 95.03363554 61.96394402 99.60668945 61.97387695 C105.47149454 61.98537338 111.33569814 61.96514792 117.20042419 61.93595982 C121.70597165 61.91762905 126.21137409 61.91788396 130.71694946 61.92359734 C132.87953536 61.9237509 135.04213088 61.91767763 137.2046814 61.90530586 C140.22611436 61.89045516 143.24642483 61.9010293 146.26782227 61.91821289 C147.16352936 61.90854492 148.05923645 61.89887695 148.98208618 61.88891602 C155.02524649 61.96101222 155.02524649 61.96101222 158.14971924 64.23951721 C160.2145883 67.23139984 161.34601113 70.38923573 162.45141602 73.81835938 C162.68991272 74.53093903 162.92840942 75.24351868 163.1741333 75.97769165 C163.67389337 77.48028058 164.16774279 78.98484684 164.65600586 80.49121094 C165.40147841 82.78549634 166.16903212 85.07149234 166.93969727 87.35742188 C167.42410632 88.8231268 167.90722257 90.28925974 168.38891602 91.75585938 C168.73101105 92.77333755 168.73101105 92.77333755 169.08001709 93.81137085 C170.35291349 97.78581767 171.09813804 101.24872841 170.65454102 105.41992188 C169.54079102 106.47179687 169.54079102 106.47179687 168.40454102 107.54492188 C166.28041725 110.29063369 166.28041725 110.29063369 167.27954102 113.29492188 C168.02152817 115.43844031 168.80738787 117.56733699 169.63891602 119.67773438 C170.65454102 122.41992188 170.65454102 122.41992188 170.65454102 125.41992188 C171.56204102 125.33742188 172.46954102 125.25492187 173.40454102 125.16992188 C176.65454102 125.41992188 176.65454102 125.41992188 178.6965332 127.06030273 C182.49456036 131.63735167 184.00991144 137.41536892 185.90454102 142.98242188 C186.13131531 143.63921936 186.3580896 144.29601685 186.59173584 144.97271729 C191.28573043 158.84617251 191.81328449 171.79836196 190.65454102 186.41992188 C191.45150391 186.39897461 192.2484668 186.37802734 193.06958008 186.35644531 C196.68110536 186.27328865 200.29242925 186.22126153 203.90454102 186.16992188 C205.15879883 186.13640625 206.41305664 186.10289062 207.70532227 186.06835938 C208.9105957 186.05546875 210.11586914 186.04257813 211.35766602 186.02929688 C212.46787109 186.00834961 213.57807617 185.98740234 214.72192383 185.96582031 C217.65454102 186.41992188 217.65454102 186.41992188 220.01489258 187.89550781 C222.42626306 191.60807046 222.22867223 194.85907603 222.18579102 199.20117188 C222.18961792 200.05167114 222.19344482 200.90217041 222.1973877 201.77844238 C222.2001056 203.57382391 222.19275284 205.36924512 222.17602539 207.16455078 C222.15461269 209.9107298 222.17582973 212.65429285 222.20141602 215.40039062 C222.19877272 217.14649014 222.19364769 218.89258803 222.18579102 220.63867188 C222.19388794 221.45855591 222.20198486 222.27843994 222.21032715 223.12316895 C222.15347926 226.58398862 221.9398754 228.87948447 220.30883789 231.96875 C217.65454102 233.41992188 217.65454102 233.41992188 206.65454102 233.41992188 C206.65454102 248.59992188 206.65454102 263.77992188 206.65454102 279.41992188 C209.95454102 279.41992188 213.25454102 279.41992188 216.65454102 279.41992188 C219.74023438 280.87109375 219.74023438 280.87109375 221.65454102 283.41992188 C222.3484123 286.3590371 222.33210524 289.19217634 222.28344727 292.20117188 C222.28585922 293.05167114 222.28827118 293.90217041 222.29075623 294.77844238 C222.28977817 296.57385935 222.27639432 298.36930663 222.25146484 300.16455078 C222.21715405 302.91087401 222.23080618 305.65397931 222.25024414 308.40039062 C222.2433455 310.14649806 222.23367294 311.89259719 222.22094727 313.63867188 C222.22590714 314.45855591 222.230867 315.27843994 222.23597717 316.12316895 C222.21222267 317.2745636 222.21222267 317.2745636 222.18798828 318.44921875 C222.1817897 319.12110229 222.17559113 319.79298584 222.16920471 320.48522949 C221.38182514 323.44509877 220.09505968 324.60277583 217.65454102 326.41992188 C214.55401611 326.90093994 214.55401611 326.90093994 210.86645508 326.87402344 C210.1928746 326.87460754 209.51929413 326.87519165 208.82530212 326.87579346 C206.60639295 326.87301419 204.38883948 326.84193302 202.17016602 326.81054688 C200.62889337 326.80308384 199.08761122 326.7973912 197.54632568 326.793396 C193.49531728 326.77814434 189.44488516 326.73886726 185.394104 326.69458008 C181.25833939 326.65361686 177.1224814 326.63538278 172.98657227 326.61523438 C164.87563112 326.57237193 156.76515781 326.50412702 148.65454102 326.41992188 C148.34709961 327.45052734 148.34709961 327.45052734 148.03344727 328.50195312 C147.62932617 329.85353516 147.62932617 329.85353516 147.21704102 331.23242188 C146.95020508 332.12574219 146.68336914 333.0190625 146.40844727 333.93945312 C145.85066228 335.77465242 145.26109526 337.60025914 144.65454102 339.41992188 C145.31454102 340.16242188 145.97454102 340.90492188 146.65454102 341.66992188 C148.65454102 344.41992187 148.65454102 344.41992187 148.61425781 347.70947266 C147.47562711 352.11163735 145.46924614 354.45959494 142.29907227 357.53710938 C141.75981613 358.07973419 141.22056 358.62235901 140.66496277 359.181427 C139.52642036 360.31967166 138.38043367 361.45051339 137.22753906 362.57421875 C135.47027783 364.29175822 133.74430887 366.03677792 132.01977539 367.78710938 C130.90628817 368.89303792 129.79110799 369.99726509 128.67407227 371.09960938 C128.16133255 371.61933319 127.64859283 372.13905701 127.12031555 372.67453003 C123.77448453 375.89248777 121.3242961 377.28371559 116.65454102 377.41992188 C113.90454102 376.04492187 113.90454102 376.04492187 111.65454102 374.41992188 C110.99454102 374.08992188 110.33454102 373.75992187 109.65454102 373.41992188 C107.25290952 374.19156193 107.25290952 374.19156193 104.65454102 375.35742188 C99.84437152 377.41992188 99.84437152 377.41992188 97.65454102 377.41992188 C97.73704102 378.30679687 97.81954102 379.19367188 97.90454102 380.10742188 C97.58674844 384.31817349 96.7494119 385.56516 93.65454102 388.41992188 C90.73146421 389.17358509 87.87974075 389.14475077 84.87329102 389.11914062 C83.59754211 389.12987358 83.59754211 389.12987358 82.29602051 389.14082336 C80.5006617 389.14859606 78.70520831 389.14359719 76.90991211 389.12670898 C74.16281961 389.10747982 71.42078472 389.1468663 68.67407227 389.19140625 C66.92797551 389.19169661 65.1818741 389.18855656 63.43579102 389.18164062 C62.20596497 389.20456429 62.20596497 389.20456429 60.95129395 389.22795105 C58.69645188 389.181875 56.81331151 389.07518121 54.65454102 388.41992188 C51.96821018 385.3786412 50.75646648 383.5920647 50.40454102 379.54492188 C50.48704102 378.84367187 50.56954102 378.14242188 50.65454102 377.41992188 C50.0396582 377.21496094 49.42477539 377.01 48.79125977 376.79882812 C45.41235352 375.67252604 42.03344727 374.54622396 38.65454102 373.41992188 C38.05641602 373.87367188 37.45829102 374.32742188 36.84204102 374.79492188 C33.99779258 376.90779214 32.19652699 377.34908216 28.65454102 377.41992188 C24.39835981 374.91849791 20.9822134 371.99500707 17.51000977 368.50585938 C16.58639648 367.5803125 15.6627832 366.65476562 14.71118164 365.70117188 C14.24043213 365.22421875 13.76968262 364.74726563 13.28466797 364.25585938 C11.83366819 362.78644278 10.37466328 361.32534652 8.91430664 359.86523438 C0.74525144 351.64451263 0.74525144 351.64451263 0.40454102 347.04492188 C0.65454102 343.41992188 0.65454102 343.41992188 2.34204102 341.54492188 C3.92827911 339.5187215 3.92827911 339.5187215 3.22094727 337.28320312 C2.43872845 334.95900271 1.57523872 332.69237121 0.65454102 330.41992188 C0.32454102 329.42992187 -0.00545898 328.43992187 -0.34545898 327.41992188 C-8.92545898 327.08992188 -17.50545898 326.75992187 -26.34545898 326.41992188 C-26.18763806 334.75187328 -26.18763806 334.75187328 -25.98510742 343.08276367 C-25.97511719 344.12601807 -25.96512695 345.16927246 -25.95483398 346.24414062 C-25.92341309 347.83875122 -25.92341309 347.83875122 -25.89135742 349.46557617 C-26.47590795 353.2686116 -27.6086005 354.73197195 -30.34545898 357.41992188 C-33.45703125 358.04811096 -33.45703125 358.04811096 -37.16186523 358.05102539 C-38.17722855 358.06175835 -38.17722855 358.06175835 -39.21310425 358.07270813 C-41.44541403 358.08958485 -43.6757123 358.07020239 -45.90795898 358.04882812 C-47.46207851 358.04965694 -49.01619795 358.05211679 -50.5703125 358.05613708 C-53.82538276 358.05899434 -57.07976465 358.04430218 -60.3347168 358.0168457 C-64.5047292 357.98276201 -68.67351083 357.98878123 -72.84358215 358.00750828 C-76.05214678 358.01808278 -79.26042557 358.00913657 -82.46896362 357.99412346 C-84.00632885 357.98894442 -85.54372396 357.98942011 -87.08108521 357.99566841 C-89.23105932 358.00112649 -91.37927867 357.98073106 -93.52905273 357.95336914 C-94.75164795 357.94717056 -95.97424316 357.94097198 -97.23388672 357.93458557 C-100.93338692 357.32267677 -102.12807669 356.39507661 -104.34545898 353.41992188 C-104.79956055 350.48730469 -104.79956055 350.48730469 -104.73608398 347.12304688 C-104.72609375 346.03668945 -104.71610352 344.95033203 -104.70581055 343.83105469 C-104.66939453 342.45788086 -104.63297852 341.08470703 -104.59545898 339.66992188 C-104.51295898 335.29742187 -104.43045898 330.92492187 -104.34545898 326.41992188 C-113.25545898 326.41992188 -122.16545898 326.41992188 -131.34545898 326.41992188 C-131.67545898 328.39992188 -132.00545898 330.37992187 -132.34545898 332.41992188 C-132.71670898 333.12117188 -133.08795898 333.82242187 -133.47045898 334.54492188 C-134.5333865 336.39135508 -134.5333865 336.39135508 -134.09545898 338.48242188 C-133.32060237 340.69221479 -133.32060237 340.69221479 -131.34545898 343.41992188 C-130.78295898 346.60742188 -130.78295898 346.60742188 -131.34545898 350.41992188 C-132.6262207 352.23022461 -132.6262207 352.23022461 -134.33764648 354.10351562 C-134.97275146 354.80033447 -135.60785645 355.49715332 -136.26220703 356.21508789 C-139.80151247 359.96095306 -143.39052633 363.6492913 -147.03295898 367.29492188 C-147.77868164 368.05289062 -148.5244043 368.81085938 -149.29272461 369.59179688 C-150.01524414 370.31625 -150.73776367 371.04070312 -151.48217773 371.78710938 C-152.12888428 372.4379248 -152.77559082 373.08874023 -153.44189453 373.75927734 C-156.41657156 376.35434637 -158.30066604 377.48661079 -162.28295898 377.23242188 C-165.34545898 376.41992188 -165.34545898 376.41992188 -167.59545898 374.60742188 C-170.97200893 373.14936622 -172.02912431 373.55772241 -175.47045898 374.66992188 C-178.46318572 375.99115531 -179.97230873 376.73641689 -181.55249023 379.63085938 C-182.31714859 382.01493047 -182.31714859 382.01493047 -182.74780273 384.39648438 C-183.34545898 386.41992188 -183.34545898 386.41992188 -186.34545898 388.41992188 C-189.199568 388.65216637 -191.95372513 388.77194252 -194.81030273 388.79101562 C-195.6400209 388.8000441 -196.46973907 388.80907257 -197.32460022 388.81837463 C-199.07883088 388.8328765 -200.83311563 388.84176372 -202.58740234 388.84545898 C-205.27005065 388.85736459 -207.95040498 388.90655448 -210.63256836 388.95703125 C-212.33763526 388.96649466 -214.04271629 388.97373009 -215.74780273 388.97851562 C-216.54895004 388.99804794 -217.35009735 389.01758026 -218.17552185 389.03770447 C-222.1042488 389.00590155 -223.9328067 388.80085319 -226.8671875 386.09204102 C-228.60254876 382.95520717 -228.67403731 380.95213886 -228.34545898 377.41992188 C-229.0325293 377.21496094 -229.71959961 377.01 -230.42749023 376.79882812 C-231.77907227 376.39470703 -231.77907227 376.39470703 -233.15795898 375.98242188 C-234.0512793 375.71558594 -234.94459961 375.44875 -235.86499023 375.17382812 C-237.70018953 374.61604314 -239.52579624 374.02647612 -241.34545898 373.41992188 C-241.90233398 373.89429688 -242.45920898 374.36867188 -243.03295898 374.85742188 C-246.34899981 377.09799 -249.51062372 377.10923529 -253.34545898 376.41992188 C-255.82253945 374.7226806 -257.53024318 373.31810889 -259.56030273 371.19726562 C-260.1015126 370.65896622 -260.64272247 370.12066681 -261.20033264 369.5660553 C-262.33500576 368.4280758 -263.45985889 367.28022883 -264.57519531 366.12329102 C-266.27847577 364.36205763 -268.01604798 362.64123948 -269.76147461 360.921875 C-270.86332414 359.80754917 -271.96301065 358.69107952 -273.06030273 357.57226562 C-273.5768895 357.06155014 -274.09347626 356.55083466 -274.62571716 356.02464294 C-278.1246909 352.33865042 -279.29459694 349.49896757 -279.34545898 344.41992188 C-278.62358398 343.49179687 -277.90170898 342.56367188 -277.15795898 341.60742188 C-274.98520625 338.636334 -274.98520625 338.636334 -275.96655273 335.89257812 C-276.70752574 334.10552558 -277.49440071 332.33668915 -278.32983398 330.59179688 C-279.34545898 328.41992188 -279.34545898 328.41992188 -279.34545898 326.41992188 C-280.23233398 326.50242187 -281.11920898 326.58492188 -282.03295898 326.66992188 C-286.24413776 326.35209706 -287.49573844 325.52075463 -290.34545898 322.41992188 C-291.06791773 319.47998622 -290.99925915 316.61795658 -290.93920898 313.60351562 C-290.93924927 312.75064468 -290.93928955 311.89777374 -290.93933105 311.01905823 C-290.93397795 309.21941747 -290.91640396 307.41977714 -290.88745117 305.62036133 C-290.84554939 302.86337033 -290.84638634 300.10881858 -290.85327148 297.3515625 C-290.84278035 295.60219654 -290.82984266 293.85284318 -290.81420898 292.10351562 C-290.81400757 291.27847031 -290.81380615 290.45342499 -290.81359863 289.6033783 C-290.69426667 283.84617769 -290.69426667 283.84617769 -288.94689941 281.71083069 C-286.09672828 279.41332966 -282.91200779 279.71226194 -279.34545898 279.41992188 C-279.14049805 278.80503906 -278.93553711 278.19015625 -278.72436523 277.55664062 C-277.03491211 272.48828125 -277.03491211 272.48828125 -275.34545898 267.41992188 C-276.00545898 266.51242187 -276.66545898 265.60492188 -277.34545898 264.66992188 C-279.34545898 261.41992188 -279.34545898 261.41992188 -279.30029297 258.08544922 C-278.1724807 253.75587278 -276.22303518 251.50542582 -273.06811523 248.52148438 C-272.54156845 248.0010556 -272.01502167 247.48062683 -271.47251892 246.94442749 C-269.79793952 245.29664719 -268.10339211 243.67120774 -266.40795898 242.04492188 C-265.27187569 240.93037801 -264.13709521 239.81450449 -263.00366211 238.69726562 C-253.63164567 229.51519496 -253.63164567 229.51519496 -248.97045898 229.16992188 C-245.34545898 229.41992188 -245.34545898 229.41992188 -243.47045898 231.10742188 C-241.44425861 232.69365997 -241.44425861 232.69365997 -239.20874023 231.98632812 C-236.88453982 231.2041093 -234.61790832 230.34061958 -232.34545898 229.41992188 C-231.35545898 229.08992187 -230.36545898 228.75992188 -229.34545898 228.41992188 C-229.34545898 203.00992188 -229.34545898 177.59992188 -229.34545898 151.41992188 C-249.69436409 142.10977038 -249.69436409 142.10977038 -269.97045898 140.54492188 C-272.11863944 140.59925706 -274.2653544 140.63840009 -276.41415405 140.65597534 C-278.31450365 140.67631595 -280.2142493 140.74010158 -282.11352539 140.80712891 C-286.19039217 140.31869329 -287.70291442 139.57376922 -290.34545898 136.41992188 C-290.87808648 133.35367352 -291.09445907 130.84849705 -291.07983398 127.77929688 C-291.08936096 126.9382843 -291.09888794 126.09727173 -291.10870361 125.23077393 C-291.12085635 123.45223057 -291.12004006 121.67355789 -291.10717773 119.89501953 C-291.09555112 117.19134626 -291.14760709 114.49399987 -291.20483398 111.79101562 C-291.32924887 97.37790729 -291.32924887 97.37790729 -287.63061523 93.02539062 C-286.2245427 91.79753752 -284.79208451 90.59972602 -283.34545898 89.41992188 C-281.7824423 87.8807823 -280.25995836 86.30641658 -278.73501587 84.72958374 C-276.45670524 82.37994865 -274.13720073 80.0729635 -271.81884766 77.76293945 C-270.01598558 75.96549952 -268.21860913 74.16269526 -266.42163086 72.359375 C-265.27546751 71.21387141 -264.12899456 70.06867749 -262.98217773 68.92382812 C-262.17752327 68.11613731 -262.17752327 68.11613731 -261.35661316 67.29212952 C-257.47099687 63.43111793 -255.74498664 62.3006883 -250.31665039 62.24291992 C-249.26861237 62.23008469 -248.22057434 62.21724945 -247.14077759 62.20402527 C-246.00433807 62.19663834 -244.86789856 62.1892514 -243.69702148 62.18164062 C-242.53294769 62.17356888 -241.3688739 62.16549713 -240.16952515 62.15718079 C-237.70311985 62.1433327 -235.23669533 62.1326138 -232.77026367 62.12475586 C-228.99287801 62.10752415 -225.21636305 62.06364076 -221.43920898 62.01953125 C-219.04598627 62.00940635 -216.6527561 62.00088961 -214.25952148 61.99414062 C-213.12713043 61.97663254 -211.99473938 61.95912445 -210.82803345 61.94108582 C-209.7736911 61.94401138 -208.71934875 61.94693695 -207.63305664 61.94995117 C-206.70643219 61.94408493 -205.77980774 61.93821869 -204.82510376 61.93217468 C-201.56447707 62.57354135 -200.35519552 63.82201771 -198.34545898 66.41992188 C-198.34545898 67.40992188 -198.34545898 68.39992188 -198.34545898 69.41992188 C-192.73545898 69.41992188 -187.12545898 69.41992188 -181.34545898 69.41992188 C-180.68545898 67.76992187 -180.02545898 66.11992188 -179.34545898 64.41992188 C-175.95157611 62.1573333 -174.76534769 62.16330644 -170.78364563 62.14144897 C-169.62678253 62.13028549 -168.46991943 62.11912201 -167.27799988 62.10762024 C-166.00773453 62.10546005 -164.73746918 62.10329987 -163.42871094 62.10107422 C-162.07852578 62.09177678 -160.72834639 62.08160839 -159.37817383 62.07063293 C-155.71112528 62.0432979 -152.04411523 62.02817322 -148.37699151 62.01520491 C-144.54524326 61.99958964 -140.71357378 61.97279433 -136.88188171 61.94717407 C-129.62527951 61.9003578 -122.36866254 61.86362752 -115.11198634 61.8305012 C-106.85084033 61.7922999 -98.58977338 61.74288455 -90.32869399 61.69251704 C-73.33433948 61.58915484 -56.33993925 61.49990843 -39.34545898 61.41992188 C-38.81048042 60.339972 -38.81048042 60.339972 -38.26469421 59.23820496 C-34.90164914 52.45199052 -31.5328326 45.66868772 -28.15750408 38.88857555 C-26.42244145 35.40279807 -24.68962788 31.91594017 -22.96191406 28.42651367 C-21.29433215 25.05874147 -19.6208957 21.69393896 -17.94336891 18.33111 C-17.30456205 17.0479555 -16.66786768 15.76374705 -16.03333092 14.47847557 C-15.14387682 12.67777502 -14.2461859 10.88115015 -13.34814453 9.0847168 C-12.83962448 8.06101486 -12.33110443 7.03731293 -11.80717468 5.98258972 C-8.65975441 0.46455858 -6.15113935 -0.02564462 0 0 Z " fill="#010101" transform="translate(290.345458984375,61.580078125)"/>
<path d="M0 0 C1.11755676 -0.01270432 1.11755676 -0.01270432 2.25769043 -0.02566528 C4.72217853 -0.04907731 7.18604384 -0.05005648 9.65063477 -0.04882812 C11.36312613 -0.05592726 13.0756151 -0.06362589 14.7881012 -0.07189941 C18.37849539 -0.08535391 21.96866967 -0.08690873 25.55908203 -0.08105469 C30.16073834 -0.075158 34.76133979 -0.1057435 39.36279202 -0.14617157 C42.89986356 -0.17201869 46.43668012 -0.17492873 49.97383308 -0.17127991 C51.67032586 -0.17297402 53.36683006 -0.18264454 55.06323051 -0.20042419 C57.4361012 -0.22255624 59.80682431 -0.21294402 62.1796875 -0.1953125 C63.23105644 -0.21520737 63.23105644 -0.21520737 64.30366516 -0.23550415 C68.03468264 -0.17107146 69.41091258 0.18159878 72.12171936 2.83337402 C73.65454102 5.41992187 73.65454102 5.41992187 73.65454102 7.41992188 C79.26454102 7.41992188 84.87454102 7.41992188 90.65454102 7.41992188 C91.64454102 9.39992188 92.63454102 11.37992188 93.65454102 13.41992188 C95.57250947 15.33789033 99.12945224 14.60395665 101.74462891 14.62524414 C102.85675499 14.64009354 102.85675499 14.64009354 103.99134827 14.65524292 C106.45326494 14.68694653 108.91520095 14.71165014 111.37719727 14.73632812 C113.07971206 14.75689002 114.78222167 14.77788628 116.48472595 14.79930115 C120.97441411 14.85460087 125.46414893 14.90397516 129.95391846 14.95214844 C134.5319028 15.00230594 139.10981904 15.05802195 143.68774414 15.11328125 C152.67661831 15.22095938 161.66555151 15.32238276 170.65454102 15.41992188 C169.00887578 21.10494722 166.36421318 26.18673824 163.65454102 31.41992188 C162.99947225 31.42046664 162.34440348 31.42101141 161.66948414 31.42157269 C145.72822376 31.43654173 129.78730912 31.47899315 113.84621906 31.55201244 C106.1371933 31.58666183 98.42834634 31.61201787 90.71923828 31.61547852 C83.99974562 31.61851851 77.28057141 31.63901334 70.56120175 31.68044645 C67.00342825 31.70177547 63.44610743 31.71437791 59.88826942 31.70607567 C55.91592492 31.69713328 51.94439384 31.72716146 47.97216797 31.76049805 C46.79324982 31.75187241 45.61433167 31.74324677 44.39968872 31.73435974 C38.03287104 31.76901461 38.03287104 31.76901461 32.52520752 34.67166138 C30.85738756 37.12191304 29.5164809 39.31122742 28.40625 42.05151367 C28.03914413 42.93981369 27.67203827 43.82811371 27.29380798 44.74333191 C26.91656082 45.69234879 26.53931366 46.64136566 26.15063477 47.61914062 C25.74547134 48.60936722 25.34030792 49.59959381 24.92286682 50.61982727 C23.63403881 53.77767564 22.36286517 56.94229128 21.09204102 60.10742188 C20.23446802 62.21661417 19.37575524 64.32534342 18.51586914 66.43359375 C14.85922808 75.41466964 11.25590375 84.41651504 7.65454102 93.41992188 C-81.77545898 93.41992188 -171.20545898 93.41992188 -263.34545898 93.41992188 C-260.0572389 86.8434817 -255.9676016 80.93850759 -249.34545898 77.41992188 C-241.55113219 75.43764027 -233.24907681 76.14272473 -225.28295898 76.41992188 C-222.04183393 76.4887131 -218.80165793 76.5403335 -215.55995178 76.57128906 C-213.55399377 76.59495901 -211.54814146 76.64289371 -209.54344177 76.71777344 C-208.1904171 76.74629395 -208.1904171 76.74629395 -206.81005859 76.77539062 C-206.01796494 76.80270264 -205.22587128 76.83001465 -204.40977478 76.8581543 C-202.17613054 76.58980108 -202.17613054 76.58980108 -200.62892151 74.58520508 C-199.20938026 72.36452531 -199.20938026 72.36452531 -198.34545898 69.41992188 C-192.73545898 69.41992188 -187.12545898 69.41992188 -181.34545898 69.41992188 C-180.68545898 67.76992187 -180.02545898 66.11992188 -179.34545898 64.41992188 C-175.95157611 62.1573333 -174.76534769 62.16330644 -170.78364563 62.14144897 C-169.62678253 62.13028549 -168.46991943 62.11912201 -167.27799988 62.10762024 C-166.00773453 62.10546005 -164.73746918 62.10329987 -163.42871094 62.10107422 C-162.07852578 62.09177678 -160.72834639 62.08160839 -159.37817383 62.07063293 C-155.71112528 62.0432979 -152.04411523 62.02817322 -148.37699151 62.01520491 C-144.54524326 61.99958964 -140.71357378 61.97279433 -136.88188171 61.94717407 C-129.62527951 61.9003578 -122.36866254 61.86362752 -115.11198634 61.8305012 C-106.85084033 61.7922999 -98.58977338 61.74288455 -90.32869399 61.69251704 C-73.33433948 61.58915484 -56.33993925 61.49990843 -39.34545898 61.41992188 C-38.81048042 60.339972 -38.81048042 60.339972 -38.26469421 59.23820496 C-34.90164914 52.45199052 -31.5328326 45.66868772 -28.15750408 38.88857555 C-26.42244145 35.40279807 -24.68962788 31.91594017 -22.96191406 28.42651367 C-21.29433215 25.05874147 -19.6208957 21.69393896 -17.94336891 18.33111 C-17.30456205 17.0479555 -16.66786768 15.76374705 -16.03333092 14.47847557 C-15.14387682 12.67777502 -14.2461859 10.88115015 -13.34814453 9.0847168 C-12.83962448 8.06101486 -12.33110443 7.03731293 -11.80717468 5.98258972 C-8.65975441 0.46455858 -6.15113935 -0.02564462 0 0 Z " fill="#FCDF7B" transform="translate(290.345458984375,61.580078125)"/>
<path d="M0 0 C13.03989841 -0.16286617 26.07955112 -0.28691098 39.1202631 -0.3626852 C45.17697888 -0.39907065 51.23299399 -0.4483514 57.28930664 -0.52807617 C63.14436575 -0.60466104 68.99875496 -0.64610047 74.85427666 -0.6641407 C77.07764658 -0.6769811 79.30098374 -0.70205358 81.52406502 -0.7401104 C95.23074017 -0.96522116 105.10939035 0.06221037 117 7 C118.57316043 7.74209789 120.15636883 8.46372398 121.75366211 9.15234375 C122.42163315 9.44955322 123.08960419 9.7467627 123.77781677 10.05297852 C124.43766068 10.34487061 125.09750458 10.6367627 125.77734375 10.9375 C126.88717369 11.43044556 126.88717369 11.43044556 128.01942444 11.93334961 C129.55717127 12.61605823 131.09520969 13.29811045 132.63354492 13.97949219 C135.69539622 15.33570056 138.7556939 16.69539955 141.81607056 18.05493164 C143.32383277 18.72306051 144.83259413 19.38893945 146.34237671 20.05249023 C150.05096652 21.68286216 153.74246289 23.33902192 157.41064453 25.05859375 C158.12080215 25.38529053 158.83095978 25.7119873 159.56263733 26.04858398 C160.88977191 26.6596647 162.21182402 27.28197702 163.52708435 27.91821289 C168.30750503 30.09500482 171.85341355 30.51786156 177 30 C180.21923705 27.66209398 181.25785711 24.41266395 182.69921875 20.80078125 C183.18583984 19.59228516 183.67246094 18.38378906 184.17382812 17.13867188 C184.67855201 15.86334717 185.18310717 14.58795568 185.6875 13.3125 C186.20307178 12.02510836 186.71934023 10.73799549 187.23632812 9.45117188 C188.49777133 6.30345846 189.75201026 3.15306618 191 0 C208.75087808 -0.68296327 226.49756397 -1.19139742 244.25864697 -1.50255299 C252.50956366 -1.65099923 260.75216482 -1.85329722 268.99780273 -2.18774414 C329.03054676 -4.57655924 329.03054676 -4.57655924 344.06960392 8.43038273 C349.55950047 13.70658953 354.16677538 19.65376189 358.13691711 26.13960266 C359.85458344 29.18794274 359.85458344 29.18794274 363 31 C366.3 31.33 369.6 31.66 373 32 C373 47.18 373 62.36 373 78 C369.04 78 365.08 78 361 78 C356.92659833 68.61883252 356.92659833 68.61883252 357.25390625 65.859375 C358 64 358 64 360 61 C360.75383338 58.21555423 360.75383338 58.21555423 360 55 C358.72282661 53.18528715 358.72282661 53.18528715 357.02734375 51.38671875 C356.39175537 50.68571045 355.75616699 49.98470215 355.10131836 49.26245117 C354.4078833 48.51584229 353.71444824 47.7692334 353 47 C351.93567749 45.84431519 351.93567749 45.84431519 350.84985352 44.6652832 C348.59446129 42.24852636 346.30240827 39.87194409 344 37.5 C343.23171875 36.67757812 342.4634375 35.85515625 341.671875 35.0078125 C337.16172686 30.28694282 337.16172686 30.28694282 331.08984375 28.34375 C327.52016171 29.10191256 326.22126071 30.15678629 324 33 C322.58208592 32.54554036 321.16571954 32.08625056 319.75 31.625 C318.96109375 31.36976563 318.1721875 31.11453125 317.359375 30.8515625 C312.82386486 29.21457374 312.82386486 29.21457374 311 28 C310.20703125 25.87109375 310.20703125 25.87109375 309.8125 23.4375 C309.49507178 20.42908246 309.49507178 20.42908246 308 18 C304.89748799 17.91125865 301.8173188 17.88481545 298.71484375 17.90234375 C297.78402481 17.9037587 296.85320587 17.90517365 295.8941803 17.90663147 C292.90858809 17.91224828 289.92306971 17.9248036 286.9375 17.9375 C284.91862087 17.94251284 282.89974057 17.94707612 280.88085938 17.95117188 C275.92054428 17.96222317 270.96028468 17.97949905 266 18 C265.67 21.3 265.34 24.6 265 28 C263.09209968 28.89395329 261.17326194 29.76459334 259.25 30.625 C258.18265625 31.11226563 257.1153125 31.59953125 256.015625 32.1015625 C253 33 253 33 250.796875 32.2734375 C250.20390625 31.85320312 249.6109375 31.43296875 249 31 C245.69419626 28.79613084 244.83442422 28.33966931 241 29 C238.71925129 30.7473992 236.80336202 32.42448767 234.7890625 34.44140625 C233.93047134 35.28214943 233.93047134 35.28214943 233.05453491 36.13987732 C231.84978711 37.32809591 230.65155455 38.52295172 229.45947266 39.72387695 C227.63249249 41.55499056 225.77365988 43.34874048 223.91015625 45.14257812 C222.74268398 46.30257007 221.57724749 47.46461527 220.4140625 48.62890625 C219.57677109 49.42779015 219.57677109 49.42779015 218.7225647 50.24281311 C216.95309701 51.97965718 216.95309701 51.97965718 215 55 C215.06383279 58.76930175 215.17775588 60.98041729 217.5625 63.9375 C218.036875 64.288125 218.51125 64.63875 219 65 C218.54363464 66.396478 218.08480512 67.7921508 217.625 69.1875 C217.36976563 69.96480469 217.11453125 70.74210937 216.8515625 71.54296875 C215.98008898 74.05744968 214.9883515 76.52912126 214 79 C204.76 79 195.52 79 186 79 C185.6875 65.125 185.6875 65.125 185.61206055 60.75048828 C185.57894775 59.61853027 185.54583496 58.48657227 185.51171875 57.3203125 C185.48553467 56.15773926 185.45935059 54.99516602 185.43237305 53.79736328 C185.28968994 52.8742334 185.14700684 51.95110352 185 51 C181.36984618 48.57989746 179.67887473 48.74687965 175.35717773 48.74121094 C174.68695587 48.7377063 174.01673401 48.73420166 173.32620239 48.73059082 C171.11189402 48.72179151 168.89790534 48.72761547 166.68359375 48.734375 C165.14567503 48.73302799 163.60775673 48.73108715 162.06983948 48.72857666 C158.84770654 48.72562798 155.6256845 48.72991537 152.40356445 48.73925781 C148.2683783 48.75066185 144.13345148 48.74408536 139.9982748 48.73211288 C136.82332902 48.72489552 133.64844501 48.72718146 130.47349739 48.73236847 C128.94842562 48.73370482 127.42334828 48.73205777 125.898283 48.72740936 C123.76984607 48.72234502 121.64183299 48.73005218 119.51342773 48.74121094 C117.69499611 48.74359772 117.69499611 48.74359772 115.83982849 48.74603271 C112.86648202 48.70597769 112.86648202 48.70597769 111 51 C110.62731113 53.91188245 110.62731113 53.91188245 110.5859375 57.3203125 C110.55032715 58.45227051 110.5147168 59.58422852 110.47802734 60.75048828 C110.42702881 62.91587158 110.42702881 62.91587158 110.375 65.125 C110.189375 71.993125 110.189375 71.993125 110 79 C100.76 79 91.52 79 82 79 C80.35 75.04 78.7 71.08 77 67 C78 65 79 63 80 61 C80.49805545 56.65537887 80.44711909 54.64559917 77.92382812 51.00219727 C76.97904047 50.00485281 76.01344999 49.02692843 75.03125 48.06640625 C74.26065247 47.28220558 74.26065247 47.28220558 73.4744873 46.48216248 C72.38686521 45.38542617 71.29031169 44.29748367 70.18554688 43.21801758 C68.50592521 41.56831965 66.87012398 39.88253205 65.234375 38.18945312 C64.1690767 37.12518632 63.1014399 36.0632541 62.03125 35.00390625 C61.30572937 34.24938927 61.30572937 34.24938927 60.56555176 33.47962952 C57.71062439 30.75552004 55.61469888 29.67757536 51.74804688 29.59350586 C48.08843252 29.66792355 48.08843252 29.66792355 46 31.5 C45.67 31.995 45.34 32.49 45 33 C40.27934033 31.45730076 35.58335908 29.92205381 31 28 C30.8046875 25.98177083 30.609375 23.96354167 30.4140625 21.9453125 C30.13625251 19.77331755 30.13625251 19.77331755 28 18 C25.08811755 17.62731113 25.08811755 17.62731113 21.6796875 17.5859375 C20.42285156 17.54726563 19.16601562 17.50859375 17.87109375 17.46875 C16.55238281 17.4378125 15.23367187 17.406875 13.875 17.375 C12.53513082 17.33681971 11.19528617 17.29776794 9.85546875 17.2578125 C6.57054852 17.16328242 3.28529294 17.08054267 0 17 C0 11.39 0 5.78 0 0 Z " fill="#43528F" transform="translate(77,263)"/>
<path d="M0 0 C26.73 0 53.46 0 81 0 C85.44745643 11.11864108 85.44745643 11.11864108 86.60546875 15.24609375 C86.99895508 16.5309668 86.99895508 16.5309668 87.40039062 17.84179688 C87.93113512 19.59206843 88.43587044 21.3504112 88.91601562 23.11523438 C89.73237467 25.68960403 90.47440955 27.76743547 92 30 C94.30219819 31.12566404 96.4779863 31.70261072 98.96557617 32.29760742 C101 33 101 33 102.75390625 35.77734375 C103.02074219 36.82019531 103.28757812 37.86304688 103.5625 38.9375 C103.85253906 39.97777344 104.14257812 41.01804688 104.44140625 42.08984375 C105 45 105 45 105 49 C104.319375 49.391875 103.63875 49.78375 102.9375 50.1875 C102.298125 50.785625 101.65875 51.38375 101 52 C101.26174856 60.22054074 104.03693819 67.19405163 107.20507812 74.7109375 C111.73639502 86.93647965 110 95.58123027 110 110 C58.85 110 7.7 110 -45 110 C-43.02234715 104.06704146 -40.99757617 98.33742961 -38.5859375 92.59375 C-38.25892349 91.8075528 -37.93190948 91.02135559 -37.59498596 90.21133423 C-36.52457352 87.63966336 -35.4497928 85.06984286 -34.375 82.5 C-33.62019663 80.68877575 -32.86572652 78.87741259 -32.11157227 77.06591797 C-30.5390032 73.28919409 -28.96499082 69.51307625 -27.39013672 65.73730469 C-25.04512653 60.11200296 -22.71040295 54.48247651 -20.37890625 48.8515625 C-20.00427246 47.94690247 -19.62963867 47.04224243 -19.24365234 46.11016846 C-17.79533725 42.61251588 -16.34719878 39.11479025 -14.89935303 35.61694336 C-14.56502258 34.80942627 -14.23069214 34.00190918 -13.88623047 33.16992188 C-13.45248611 32.12209534 -13.45248611 32.12209534 -13.00997925 31.05310059 C-8.70963252 20.68582305 -4.35574375 10.3448914 0 0 Z " fill="#FBDD7B" transform="translate(356,139)"/>
<path d="M0 0 C5.28 0 10.56 0 16 0 C16.99 2.97 16.99 2.97 18 6 C19.70764999 7.38619519 19.70764999 7.38619519 21.875 8.0625 C22.66648437 8.36929687 23.45796875 8.67609375 24.2734375 8.9921875 C25.17320312 9.32476562 26.07296875 9.65734375 27 10 C29.16991671 10.88793202 31.33655531 11.78391332 33.5 12.6875 C35.03140625 13.31205078 35.03140625 13.31205078 36.59375 13.94921875 C39 15 39 15 40 16 C41.4346959 16.09894455 42.87440397 16.12970735 44.3125 16.125 C45.09238281 16.12757813 45.87226563 16.13015625 46.67578125 16.1328125 C48.99573723 16.12864644 48.99573723 16.12864644 50.96484375 15.18359375 C53 15 53 15 55.578125 17.08984375 C56.45984375 18.02957031 57.3415625 18.96929687 58.25 19.9375 C59.14203125 20.87464844 60.0340625 21.81179688 60.953125 22.77734375 C61.62859375 23.51082031 62.3040625 24.24429687 63 25 C62.67 25.515625 62.34 26.03125 62 26.5625 C60.06837624 31.27083291 60.61685935 35.0101325 62.42578125 39.68359375 C63.04123147 40.94156871 63.67058275 42.19282245 64.3125 43.4375 C64.96772194 44.75247604 65.62010094 46.06887276 66.26953125 47.38671875 C66.57713379 48.00981934 66.88473633 48.63291992 67.20166016 49.27490234 C68.1761695 51.38067698 68.85175441 53.52449444 69.5 55.75 C70.98356891 59.91746603 70.98356891 59.91746603 78 62 C78 67.28 78 72.56 78 78 C75.03 78.99 75.03 78.99 72 80 C68.40793382 82.43280846 67.68696336 86.40824504 66.5 90.375 C65.11393487 94.95348612 63.48859213 98.89988402 61 103 C60.58667752 107.71187627 60.84980081 109.69960163 63 114 C59.37 117.63 55.74 121.26 52 125 C50.02 124.01 50.02 124.01 48 123 C42.12580153 122.17761221 38.63448379 123.98253629 33.62890625 126.703125 C30.97886429 128.01042653 28.47606545 128.80669473 25.625 129.5625 C21.77472425 130.64444562 19.3257718 131.56190256 17 135 C16.67 136.65 16.34 138.3 16 140 C10.72 140 5.44 140 0 140 C-0.99 137.69 -1.98 135.38 -3 133 C-4.95670804 131.40847868 -4.95670804 131.40847868 -7.30859375 130.63671875 C-8.13810547 130.30736328 -8.96761719 129.97800781 -9.82226562 129.63867188 C-10.68529297 129.32478516 -11.54832031 129.01089844 -12.4375 128.6875 C-14.14476517 128.02534239 -15.85180456 127.36260229 -17.55859375 126.69921875 C-18.31454834 126.41908936 -19.07050293 126.13895996 -19.84936523 125.8503418 C-22 125 -22 125 -24.05883789 123.90942383 C-27.07737273 122.49525677 -29.72047718 122.76574837 -33 123 C-35.17121226 123.96009005 -35.17121226 123.96009005 -37 125 C-38.7021698 123.4324482 -40.38640554 121.84540216 -42.0625 120.25 C-43.00222656 119.36828125 -43.94195312 118.4865625 -44.91015625 117.578125 C-47 115 -47 115 -46.83203125 112.9296875 C-46.55746094 112.29289062 -46.28289062 111.65609375 -46 111 C-45.11843097 104.52676458 -46.49004919 100.26636471 -49.6484375 94.62890625 C-51.50307328 91.02147884 -52.54990684 87.25165655 -53.6171875 83.34765625 C-55.22680467 80.08520654 -55.22680467 80.08520654 -62 78 C-62 72.72 -62 67.44 -62 62 C-60.02 61.01 -58.04 60.02 -56 59 C-54.66565619 57.23762648 -54.66565619 57.23762648 -54 55.125 C-52.45896482 51.11569661 -50.6751118 47.34122776 -48.75 43.5 C-46.13250601 37.87699156 -45.41543483 34.13793426 -46 28 C-46 24 -46 24 -44.03125 21.640625 C-42.77828125 20.45726562 -42.77828125 20.45726562 -41.5 19.25 C-40.6646875 18.45078125 -39.829375 17.6515625 -38.96875 16.828125 C-38.3190625 16.22484375 -37.669375 15.6215625 -37 15 C-36.01 15.33 -35.02 15.66 -34 16 C-26.54168812 16.84206747 -21.82114356 14.9144607 -15.1640625 11.578125 C-11.78494677 9.89273888 -8.35197665 8.53505569 -4.8046875 7.25 C-2.24453338 5.69065488 -2.24453338 5.69065488 0 0 Z " fill="#5A65AB" transform="translate(357,295)"/>
<path d="M0 0 C5.28 0 10.56 0 16 0 C16.99 1.98 17.98 3.96 19 6 C22.52200834 8.65207832 26.44558368 10.04071981 30.5625 11.5625 C36.71183442 13.84450734 36.71183442 13.84450734 39.12109375 15.14453125 C41.39016407 16.17764227 43.01908879 16.20146644 45.5 16.125 C46.2528125 16.10695313 47.005625 16.08890625 47.78125 16.0703125 C48.5134375 16.04710937 49.245625 16.02390625 50 16 C54 16 54 16 56.359375 17.96875 C57.54273438 19.22171875 57.54273438 19.22171875 58.75 20.5 C59.54921875 21.3353125 60.3484375 22.170625 61.171875 23.03125 C61.77515625 23.6809375 62.3784375 24.330625 63 25 C62.649375 25.680625 62.29875 26.36125 61.9375 27.0625 C60.02640912 33.05058475 62.21077429 38.02289203 64.875 43.4375 C66.6605947 47.13198047 68.32960658 50.7316231 69.625 54.625 C71.02192998 58.05382814 71.7826938 59.29080608 75 61 C75.99 61.33 76.98 61.66 78 62 C78 67.28 78 72.56 78 78 C75.03 78.99 75.03 78.99 72 80 C69.17980454 83.58933967 67.94438558 87.70387878 66.5 92 C65.02816616 96.37776219 63.38613384 100.06185361 61 104 C60.55221216 108.29876325 61.33634162 111.07615234 63 115 C61.62354341 116.53839266 60.22304968 118.05530581 58.8125 119.5625 C58.03519531 120.40941406 57.25789063 121.25632812 56.45703125 122.12890625 C54 124 54 124 51.421875 123.8046875 C50.22304687 123.40636719 50.22304687 123.40636719 49 123 C42.07885472 122.15003479 38.0460983 124.19984624 31.9765625 127.48046875 C29.29772102 128.84801381 26.81467153 129.78621547 23.9375 130.625 C21.18726595 131.47543404 20.11499619 131.88859744 18 133.9375 C16.79285398 136.24772101 16.79285398 136.24772101 16 140 C10.72 140 5.44 140 0 140 C-0.66 138.02 -1.32 136.04 -2 134 C-4.85287314 131.16606186 -7.94598592 130.2106027 -11.75 129.0625 C-15.48987811 127.88555173 -18.88350676 126.64903148 -22.3125 124.75 C-25.96110277 122.81928103 -28.84647546 122.51135005 -33 123 C-34.485 123.99 -34.485 123.99 -36 125 C-39.63 121.37 -43.26 117.74 -47 114 C-46.34 112.68 -45.68 111.36 -45 110 C-43.94114926 103.64689558 -46.50898903 99.55801697 -49.48046875 94.01171875 C-50.83790564 91.32127185 -51.78329434 88.81998922 -52.625 85.9375 C-53.47543404 83.18726595 -53.88859744 82.11499619 -55.9375 80 C-58.24772101 78.79285398 -58.24772101 78.79285398 -62 78 C-62 72.72 -62 67.44 -62 62 C-59.69 61.01 -57.38 60.02 -55 59 C-53.16594945 56.24892418 -52.51044444 54.61002317 -51.6875 51.5 C-50.29415973 46.58739821 -48.2958336 42.18766031 -45.98828125 37.640625 C-44.51544907 33.70531055 -44.35985073 30.52035451 -46 26.625 C-46.33 26.08875 -46.66 25.5525 -47 25 C-45.4324482 23.2978302 -43.84540216 21.61359446 -42.25 19.9375 C-41.36828125 18.99777344 -40.4865625 18.05804688 -39.578125 17.08984375 C-37 15 -37 15 -34.921875 15.1640625 C-34.28765625 15.43992187 -33.6534375 15.71578125 -33 16 C-25.82470315 17.14283962 -21.06844538 14.8539354 -14.80859375 11.46484375 C-11.53847377 9.75928743 -8.57476149 8.83664631 -5 8 C-4.01 7.67 -3.02 7.34 -2 7 C-1.34 4.69 -0.68 2.38 0 0 Z " fill="#5A65AB" transform="translate(77,295)"/>
<path d="M0 0 C1.73974342 0.00137466 1.73974342 0.00137466 3.51463318 0.0027771 C5.9631663 0.0088119 8.41169208 0.02455408 10.86010742 0.04931641 C14.61079051 0.08583718 18.36048574 0.09033557 22.11132812 0.08984375 C24.49089397 0.09967456 26.87045311 0.1113314 29.25 0.125 C30.37297989 0.12722565 31.49595978 0.12945129 32.65296936 0.13174438 C34.21995827 0.15088394 34.21995827 0.15088394 35.81860352 0.17041016 C37.19496727 0.18184555 37.19496727 0.18184555 38.59913635 0.19351196 C41.26958184 0.48387898 42.83927072 0.95301499 45.05859375 2.4609375 C49.21542653 8.84446595 51.07447324 17.19172744 53.38671875 24.37890625 C53.78058777 25.5949202 54.17445679 26.81093414 54.58026123 28.063797 C55.40636911 30.62043155 56.23026565 33.17766123 57.05078125 35.73608398 C58.09941331 39.00384049 59.16062759 42.2673589 60.22511673 45.52997875 C61.24528804 48.6645547 62.25274656 51.80321095 63.26171875 54.94140625 C63.83348846 56.69000191 63.83348846 56.69000191 64.41680908 58.47392273 C64.76427185 59.56558243 65.11173462 60.65724213 65.46972656 61.78198242 C65.77742981 62.73634689 66.08513306 63.69071136 66.40216064 64.67399597 C67.39671921 68.89647736 67.94517619 71.9671356 65.66821289 75.80358887 C61.67100022 78.34218726 57.94933298 78.01881885 53.3046875 77.97851562 C52.31566437 77.9855249 51.32664124 77.99253418 50.30764771 77.99975586 C47.03684452 78.0173679 43.76690581 78.0057013 40.49609375 77.9921875 C38.2245263 77.99488148 35.95295998 77.99876311 33.68139648 78.00378418 C28.91997298 78.0096836 24.15884957 78.00110169 19.39746094 77.98242188 C13.29050307 77.95963244 7.18424834 77.9727531 1.07731628 77.99671173 C-3.61353871 78.0111575 -8.30422668 78.00656925 -12.99508667 77.99620056 C-15.2469796 77.99352992 -17.49888764 77.99681485 -19.75076294 78.00611877 C-22.8967513 78.01626392 -26.04159688 78.00081086 -29.1875 77.97851562 C-30.58716507 77.99066101 -30.58716507 77.99066101 -32.0151062 78.00305176 C-38.26289252 77.92091449 -38.26289252 77.92091449 -41.55284119 75.69059753 C-43.58923284 72.42070317 -43.1222166 70.55422865 -42.52175903 66.87637329 C-41.56591355 62.89813201 -40.06975463 59.26424226 -38.40625 55.53515625 C-38.04930557 54.70748245 -37.69236115 53.87980865 -37.32460022 53.02705383 C-36.18735266 50.39576032 -35.03395394 47.77195925 -33.87890625 45.1484375 C-32.75721712 42.5744638 -31.63907924 39.99898712 -30.52285767 37.42263794 C-29.77891354 35.70704655 -29.03198707 33.99274531 -28.28207397 32.27975464 C-26.34843593 27.8366299 -24.50146171 23.37770715 -22.77392578 18.85009766 C-22.42399063 17.93952103 -22.07405548 17.0289444 -21.71351624 16.09077454 C-21.05265988 14.35601298 -20.40428617 12.61642518 -19.77073669 10.87150574 C-15.79769273 0.46010408 -10.53068049 -0.1350069 0 0 Z " fill="#040403" transform="translate(380.94140625,154.5390625)"/>
<path d="M0 0 C8.20164629 5.86249583 13.01369321 13.66607962 16.1875 23.1875 C17.206459 36.56497595 15.9249433 46.91270064 7 57.5625 C-0.17272961 64.98585743 -8.24938523 69.6121403 -18.64453125 70.5234375 C-31.48888417 70.64948611 -40.27325887 68.10302152 -49.8125 59.1875 C-56.97883723 51.79314294 -61.02147468 41.81473433 -61.375 31.5625 C-60.89468807 21.05883655 -56.78725212 12.01739414 -49.8125 4.1875 C-34.98501179 -9.02060383 -16.75105786 -10.43095923 0 0 Z " fill="#020203" transform="translate(386.8125,332.8125)"/>
<path d="M0 0 C10.00231596 5.50833575 17.60966378 14.22940812 20.91796875 25.17578125 C23.72385836 37.08005848 21.28666737 47.2861346 15.04296875 57.67578125 C10.9467063 63.40055779 6.34199417 67.53222225 0.04296875 70.67578125 C-0.58738281 70.99546875 -1.21773437 71.31515625 -1.8671875 71.64453125 C-10.21512838 75.11881878 -21.52856981 75.64659841 -29.9921875 72.24609375 C-41.80785432 66.75121009 -49.69234949 58.96316079 -54.26171875 46.67578125 C-56.57132693 36.71073022 -56.22819688 25.60249208 -50.95703125 16.67578125 C-39.81858507 -1.13931279 -19.72508381 -8.52911663 0 0 Z " fill="#020203" transform="translate(101.95703125,329.32421875)"/>
<path d="M0 0 C0.74503784 -0.00846954 1.49007568 -0.01693909 2.25769043 -0.02566528 C4.72217853 -0.04907731 7.18604384 -0.05005648 9.65063477 -0.04882812 C11.36312613 -0.05592726 13.0756151 -0.06362589 14.7881012 -0.07189941 C18.37849539 -0.08535391 21.96866967 -0.08690873 25.55908203 -0.08105469 C30.16073834 -0.075158 34.76133979 -0.1057435 39.36279202 -0.14617157 C42.89986356 -0.17201869 46.43668012 -0.17492873 49.97383308 -0.17127991 C51.67032586 -0.17297402 53.36683006 -0.18264454 55.06323051 -0.20042419 C57.4361012 -0.22255624 59.80682431 -0.21294402 62.1796875 -0.1953125 C62.88060013 -0.20857574 63.58151276 -0.22183899 64.30366516 -0.23550415 C67.96867609 -0.17221136 69.42702849 0.20972463 72.15687561 2.73181152 C73.65454102 5.41992187 73.65454102 5.41992187 73.09204102 9.04492188 C71.13752028 13.63379664 71.13752028 13.63379664 68.65454102 15.41992188 C65.7122345 15.78068542 65.7122345 15.78068542 62.07177734 15.76049805 C61.40809647 15.76093613 60.74441559 15.76137421 60.06062317 15.76182556 C57.86897262 15.75973707 55.67808901 15.73640455 53.48657227 15.71289062 C51.96628741 15.70729485 50.44599715 15.70302466 48.92570496 15.70002747 C44.92576136 15.68857712 40.92614495 15.65910859 36.92633057 15.62591553 C32.84424262 15.59521857 28.76210176 15.58152295 24.67993164 15.56640625 C16.67131801 15.53423882 8.66297022 15.48304048 0.65454102 15.41992188 C0.37113358 16.31172653 0.08772614 17.20353119 -0.20426941 18.12236023 C-1.18315303 20.9509254 -2.26709395 23.51101012 -3.60449219 26.1809082 C-4.04867996 27.07236038 -4.49286774 27.96381256 -4.95051575 28.88227844 C-5.42760483 29.82927109 -5.90469391 30.77626373 -6.39624023 31.75195312 C-6.892061 32.74313644 -7.38788177 33.73431976 -7.89872742 34.75553894 C-8.94670246 36.84847433 -9.99661658 38.94043976 -11.04833984 41.03149414 C-12.64609517 44.20882922 -14.23749058 47.38928563 -15.82788086 50.5703125 C-16.85029142 52.61021449 -17.87306619 54.64993398 -18.89624023 56.68945312 C-19.36725662 57.63037308 -19.83827301 58.57129303 -20.32356262 59.54072571 C-22.51748082 63.89770782 -24.74532598 68.23441503 -27.06103516 72.52807617 C-27.45272385 73.2549614 -27.84441254 73.98184662 -28.24797058 74.73075867 C-29.34545898 76.41992188 -29.34545898 76.41992188 -31.34545898 77.41992188 C-33.24946457 77.5221678 -35.15707875 77.55942195 -37.06381226 77.5670929 C-38.8893438 77.57782585 -38.8893438 77.57782585 -40.75175476 77.58877563 C-42.10769628 77.591616 -43.46363807 77.59432771 -44.81958008 77.59692383 C-46.24193997 77.60318753 -47.66429822 77.60983425 -49.08665466 77.61683655 C-52.9565104 77.63425301 -56.82635377 77.64479972 -60.69623899 77.65304208 C-63.11277831 77.65819009 -65.52931377 77.66426586 -67.94585037 77.67055321 C-75.50317837 77.68960574 -83.06049658 77.70383763 -90.61784399 77.71216518 C-99.34823644 77.72194365 -108.07837576 77.74827862 -116.80867898 77.78866607 C-123.55267727 77.81879672 -130.29660287 77.83363107 -137.04066718 77.83694619 C-141.07064576 77.83929987 -145.10035394 77.84830138 -149.13026047 77.87340736 C-152.92077445 77.89664054 -156.71083906 77.90094084 -160.50140572 77.89064598 C-161.89299194 77.89014937 -163.28459993 77.89650684 -164.67611885 77.91020203 C-166.57504359 77.92784623 -168.47416234 77.91845386 -170.37313843 77.90766907 C-171.43613348 77.91005742 -172.49912853 77.91244577 -173.59433556 77.9149065 C-177.05086859 77.29300394 -178.20031842 76.14783153 -180.34545898 73.41992188 C-181.40795898 70.48242188 -181.40795898 70.48242188 -181.34545898 67.41992188 C-179.70240843 64.83174359 -178.96252323 63.85283739 -176.34545898 62.41992188 C-171.97259782 61.65215004 -167.63184045 61.73024398 -163.20166016 61.76049805 C-161.85117108 61.75204133 -160.5006942 61.7413956 -159.15023804 61.72872925 C-155.49138955 61.70059986 -151.83312765 61.70305122 -148.17420363 61.71102309 C-144.34776279 61.71414938 -140.52150837 61.68911029 -136.69514465 61.66706848 C-129.45271235 61.62962291 -122.21046781 61.6174802 -114.96794826 61.61444408 C-106.72122405 61.60975379 -98.474688 61.57683148 -90.22804677 61.54154623 C-73.26719802 61.46960718 -56.30645309 61.43309425 -39.34545898 61.41992188 C-38.81048042 60.339972 -38.81048042 60.339972 -38.26469421 59.23820496 C-34.90164914 52.45199052 -31.5328326 45.66868772 -28.15750408 38.88857555 C-26.42244145 35.40279807 -24.68962788 31.91594017 -22.96191406 28.42651367 C-21.29433215 25.05874147 -19.6208957 21.69393896 -17.94336891 18.33111 C-17.30456205 17.0479555 -16.66786768 15.76374705 -16.03333092 14.47847557 C-15.14387682 12.67777502 -14.2461859 10.88115015 -13.34814453 9.0847168 C-12.83962448 8.06101486 -12.33110443 7.03731293 -11.80717468 5.98258972 C-8.65975441 0.46455858 -6.15113935 -0.02564462 0 0 Z " fill="#000000" transform="translate(290.345458984375,61.580078125)"/>
<path d="M0 0 C15.84 0 31.68 0 48 0 C48 31.02 48 62.04 48 94 C44.30114591 93.26022918 41.80955455 92.62313492 38.48510742 91.14233398 C37.61269409 90.75670288 36.74028076 90.37107178 35.84143066 89.97375488 C34.93856323 89.56862671 34.0356958 89.16349854 33.10546875 88.74609375 C32.26520142 88.37359497 31.42493408 88.00109619 30.5592041 87.61730957 C27.43283633 86.22958294 24.31039794 84.83301749 21.1875 83.4375 C14.195625 80.323125 7.20375 77.20875 0 74 C0 49.58 0 25.16 0 0 Z " fill="#FFE07C" transform="translate(170,170)"/>
<path d="M0 0 C19.47 0 38.94 0 59 0 C57.05605623 5.83183132 55.08894623 11.40384834 52.65625 17.01171875 C52.33456848 17.76232071 52.01288696 18.51292267 51.68145752 19.28627014 C50.9865788 20.90762971 50.29026722 22.52837581 49.59265137 24.14855957 C47.69307591 28.56250997 45.80664004 32.9820525 43.921875 37.40234375 C43.52526672 38.33249298 43.12865845 39.26264221 42.72003174 40.22097778 C35.9954683 56.027111 29.49502126 71.92759979 22.96044922 87.8129425 C20.32563716 94.21648012 17.67385268 100.61264757 15 107 C9.69319537 105.31147125 5.03740938 103.51870469 0 101 C0 67.67 0 34.34 0 0 Z " fill="#FADC7A" transform="translate(232,170)"/>
<path d="M0 0 C7.734375 -0.020625 15.46875 -0.04125 23.4375 -0.0625 C25.88212646 -0.071604 28.32675293 -0.08070801 30.84545898 -0.09008789 C32.77067001 -0.09300691 34.69588165 -0.0955555 36.62109375 -0.09765625 C38.13564148 -0.1053302 38.13564148 -0.1053302 39.68078613 -0.11315918 C40.6348938 -0.11328003 41.58900146 -0.11340088 42.57202148 -0.11352539 C43.40475082 -0.115746 44.23748016 -0.11796661 45.09544373 -0.12025452 C47 0 47 0 48 1 C48.09498646 3.43396019 48.12558417 5.83942952 48.11352539 8.27368164 C48.11367142 9.03460617 48.11381744 9.7955307 48.1139679 10.57951355 C48.11326862 13.10642298 48.10547555 15.63325962 48.09765625 18.16015625 C48.09579212 19.9075059 48.0943682 21.65485607 48.09336853 23.40220642 C48.08954293 28.01031934 48.07971229 32.61840095 48.06866455 37.22650146 C48.05665694 42.75059614 48.05204839 48.27470126 48.04621124 53.79880524 C48.03650055 62.1992253 48.0173443 70.59957659 48 79 C32.16 79 16.32 79 0 79 C0 52.93 0 26.86 0 0 Z " fill="#F1C65F" transform="translate(201,325)"/>
<path d="M0 0 C15.51 0 31.02 0 47 0 C47 22.11 47 44.22 47 67 C35.93217042 62.44265841 24.90759522 57.84215277 13.9375 53.0625 C9.338125 51.061875 4.73875 49.06125 0 47 C0 31.49 0 15.98 0 0 Z " fill="#FFE07C" transform="translate(108,170)"/>
<path d="M0 0 C12.87 0 25.74 0 39 0 C49.67138672 32.01416016 49.67138672 32.01416016 50.35540771 34.08575439 C50.9345268 35.80556426 51.55297355 37.51201196 52.17626953 39.21630859 C53 42 53 42 53 47 C29.57 47 6.14 47 -18 47 C-16.875 39.125 -16.875 39.125 -15.32592773 35.53344727 C-14.98565048 34.7331459 -14.64537323 33.93284454 -14.29478455 33.10829163 C-13.92809158 32.26946945 -13.56139862 31.43064728 -13.18359375 30.56640625 C-12.80767593 29.68846909 -12.43175812 28.81053192 -12.04444885 27.9059906 C-10.84998995 25.12137001 -9.64395425 22.34194147 -8.4375 19.5625 C-7.62227546 17.66764941 -6.80781407 15.77247029 -5.99414062 13.87695312 C-4.00630487 9.24677504 -2.0028717 4.62380878 0 0 Z " fill="#5FBFC3" transform="translate(376,170)"/>
<path d="M0 0 C26.73 0 53.46 0 81 0 C81 0.33 81 0.66 81 1 C59.88 1.33 38.76 1.66 17 2 C15.02 6.62 13.04 11.24 11 16 C11.66 16.33 12.32 16.66 13 17 C12.38304764 17.40644745 11.76609528 17.8128949 11.13044739 18.23165894 C8.78372272 20.17951722 8.04641698 21.49488588 6.9128418 24.29345703 C6.55534348 25.15931427 6.19784515 26.02517151 5.82951355 26.91726685 C5.45651627 27.85464691 5.08351898 28.79202698 4.69921875 29.7578125 C4.2997554 30.73426727 3.90029205 31.71072205 3.48872375 32.71676636 C2.21049777 35.84844104 0.9487505 38.98645538 -0.3125 42.125 C-1.14929802 44.18403813 -1.9871779 46.24263693 -2.82617188 48.30078125 C-4.46210834 52.31797166 -6.0916836 56.33764426 -7.71582031 60.35961914 C-10.03967745 66.10897726 -12.39701207 71.84414808 -14.77351379 77.57192993 C-16.83004366 82.54104846 -18.775081 87.5471144 -20.6640625 92.58203125 C-22.68678797 97.75713296 -24.86293986 102.87105566 -27 108 C40.815 108.495 40.815 108.495 110 109 C110 109.33 110 109.66 110 110 C58.85 110 7.7 110 -45 110 C-43.02234715 104.06704146 -40.99757617 98.33742961 -38.5859375 92.59375 C-38.25892349 91.8075528 -37.93190948 91.02135559 -37.59498596 90.21133423 C-36.52457352 87.63966336 -35.4497928 85.06984286 -34.375 82.5 C-33.62019663 80.68877575 -32.86572652 78.87741259 -32.11157227 77.06591797 C-30.5390032 73.28919409 -28.96499082 69.51307625 -27.39013672 65.73730469 C-25.04512653 60.11200296 -22.71040295 54.48247651 -20.37890625 48.8515625 C-20.00427246 47.94690247 -19.62963867 47.04224243 -19.24365234 46.11016846 C-17.79533725 42.61251588 -16.34719878 39.11479025 -14.89935303 35.61694336 C-14.56502258 34.80942627 -14.23069214 34.00190918 -13.88623047 33.16992188 C-13.45248611 32.12209534 -13.45248611 32.12209534 -13.00997925 31.05310059 C-8.70963252 20.68582305 -4.35574375 10.3448914 0 0 Z " fill="#EEC45E" transform="translate(356,139)"/>
<path d="M0 0 C25.74 0 51.48 0 78 0 C78 12.87 78 25.74 78 39 C73.90238818 38.18047764 71.07364425 37.28420639 67.34375 35.59375 C66.24981934 35.10108643 65.15588867 34.60842285 64.02880859 34.10083008 C62.86430176 33.57255615 61.69979492 33.04428223 60.5 32.5 C59.27868936 31.95672931 58.05683998 31.41466824 56.83447266 30.8737793 C51.31526222 28.42636577 45.82895453 25.94387203 40.4296875 23.23828125 C26.96284969 16.67093753 14.9015853 15.69237025 0 16 C0 10.72 0 5.44 0 0 Z " fill="#FEE07C" transform="translate(15,170)"/>
<path d="M0 0 C7.92 0 15.84 0 24 0 C24 25.41 24 50.82 24 77 C16.08 77 8.16 77 0 77 C0 51.59 0 26.18 0 0 Z " fill="#FFE17D" transform="translate(224,326)"/>
<path d="M0 0 C7.02362182 3.91426334 11.31649147 9.23138967 13.75 16.9375 C14.48612624 24.5441378 12.80996524 30.78696493 8.625 37.1875 C3.17082684 42.40453519 -1.63995358 45.22437371 -9.3125 45.4375 C-17.7270433 45.02104418 -22.80306015 42.96537932 -28.70703125 36.94921875 C-34.02624889 30.01403625 -34.10000183 23.37956361 -33.25 14.9375 C-31.57980887 8.63451682 -27.54602696 4.53924715 -22.25 0.9375 C-14.85153391 -3.25031099 -7.694969 -3.50612873 0 0 Z " fill="#D3E0F0" transform="translate(95.25,343.0625)"/>
<path d="M0 0 C4.88545953 2.72622623 7.87377357 6.21856624 10.6875 11 C11.06132812 11.62390625 11.43515625 12.2478125 11.8203125 12.890625 C14.19735256 18.67261434 13.41165099 26.08481912 11.1875 31.8125 C8.23779802 37.56546486 3.60970196 41.47248534 -2.0625 44.4375 C-10.86755743 45.96145225 -17.61951545 45.92919414 -25.18359375 40.78125 C-30.2515712 36.54088722 -33.79586946 31.01890505 -34.6484375 24.38671875 C-34.76112831 16.59978367 -33.65793521 11.51395527 -28.21875 5.80078125 C-19.82394991 -1.9923915 -10.94964516 -4.9124541 0 0 Z " fill="#D3E0F1" transform="translate(375.3125,343)"/>
<path d="M0 0 C21.78 0 43.56 0 66 0 C66 0.33 66 0.66 66 1 C51.48 1.33 36.96 1.66 22 2 C19.20208984 7.61322266 19.20208984 7.61322266 16.34765625 13.33984375 C14.86250808 16.31656764 13.37695865 19.29309051 11.89113617 22.26947784 C10.32099237 25.41505375 8.75156377 28.5609819 7.18383789 31.70776367 C5.38647832 35.31539139 3.58591049 38.92140927 1.78515625 42.52734375 C1.22159927 43.65961899 0.6580423 44.79189423 0.07740784 45.95848083 C-0.44305618 46.99948441 -0.9635202 48.04048798 -1.49975586 49.11303711 C-1.95942245 50.03459091 -2.41908905 50.95614471 -2.89268494 51.90562439 C-4 54 -4 54 -5 55 C-6.45200327 55.13252559 -7.90977914 55.2032288 -9.3671875 55.24609375 C-10.25277344 55.27896484 -11.13835937 55.31183594 -12.05078125 55.34570312 C-13.92566621 55.40664337 -15.80067243 55.46396623 -17.67578125 55.51757812 C-18.56394531 55.55173828 -19.45210938 55.58589844 -20.3671875 55.62109375 C-21.18300293 55.6461499 -21.99881836 55.67120605 -22.83935547 55.69702148 C-25.29254386 55.8817429 -25.29254386 55.8817429 -28 58 C-26.7400809 53.99560346 -25.27016757 50.29499371 -23.38623047 46.54541016 C-22.85860107 45.49039307 -22.33097168 44.43537598 -21.78735352 43.34838867 C-21.23619873 42.25631104 -20.68504395 41.1642334 -20.1171875 40.0390625 C-19.60808838 39.02287842 -19.09898926 38.00669434 -18.57446289 36.9597168 C-16.67902682 33.17927618 -14.77659953 29.40234409 -12.875 25.625 C-8.62625 17.16875 -4.3775 8.7125 0 0 Z " fill="#F9CD63" transform="translate(291,77)"/>
<path d="M0 0 C12.20220188 4.95861032 24.28388729 10.14270958 36.32446289 15.48095703 C39.22094615 16.76482503 42.11915505 18.04473688 45.01757812 19.32421875 C46.88030989 20.14820795 48.74294379 20.97241844 50.60546875 21.796875 C51.46174362 22.17503357 52.31801849 22.55319214 53.20024109 22.94281006 C57.52278682 24.86149176 61.79006513 26.84114642 66 29 C66 29.33 66 29.66 66 30 C44.22 30 22.44 30 0 30 C0 20.1 0 10.2 0 0 Z " fill="#42508C" transform="translate(77,219)"/>
<path d="M0 0 C21.78 0 43.56 0 66 0 C66 5.28 66 10.56 66 16 C58.85124629 16.34896287 51.7075527 16.60139286 44.55224609 16.76904297 C42.12493462 16.83898409 39.69820306 16.93418282 37.27294922 17.05615234 C16.05100819 18.09584398 16.05100819 18.09584398 9.19628906 12.89160156 C5.59220079 9.59404671 2.67801693 6.08093472 0 2 C0 1.34 0 0.68 0 0 Z " fill="#F6D979" transform="translate(431,264)"/>
<path d="M0 0 C5.28 0 10.56 0 16 0 C17 1 17 1 17.12025452 2.90455627 C17.1169236 4.15365028 17.1169236 4.15365028 17.11352539 5.42797852 C17.11344986 6.36887833 17.11337433 7.30977814 17.11329651 8.27919006 C17.10813522 9.30209641 17.10297394 10.32500275 17.09765625 11.37890625 C17.0962413 12.42070541 17.09482635 13.46250458 17.09336853 14.53587341 C17.0877508 17.87811094 17.0751953 21.22028257 17.0625 24.5625 C17.05748728 26.82226466 17.05292398 29.08203037 17.04882812 31.34179688 C17.03777561 36.89455682 17.0204991 42.44726722 17 48 C11.39 48 5.78 48 0 48 C0 32.16 0 16.32 0 0 Z " fill="#E79D27" transform="translate(465,294)"/>
<path d="M0 0 C15.51 0 31.02 0 47 0 C47 5.28 47 10.56 47 16 C31.49 16 15.98 16 0 16 C0 10.72 0 5.44 0 0 Z " fill="#31427C" transform="translate(450,357)"/>
<path d="M0 0 C15.84 0 31.68 0 48 0 C48 31.02 48 62.04 48 94 C44.30114591 93.26022918 41.80955455 92.62313492 38.48510742 91.14233398 C37.61269409 90.75670288 36.74028076 90.37107178 35.84143066 89.97375488 C34.93856323 89.56862671 34.0356958 89.16349854 33.10546875 88.74609375 C32.26520142 88.37359497 31.42493408 88.00109619 30.5592041 87.61730957 C27.43283633 86.22958294 24.31039794 84.83301749 21.1875 83.4375 C14.195625 80.323125 7.20375 77.20875 0 74 C0 49.58 0 25.16 0 0 Z M1 1 C1 23.44 1 45.88 1 69 C8.80424844 72.90212422 16.59810163 76.58624792 24.5625 80.125 C25.72974609 80.64964844 26.89699219 81.17429687 28.09960938 81.71484375 C29.24365234 82.22402344 30.38769531 82.73320312 31.56640625 83.2578125 C33.09696655 83.94061279 33.09696655 83.94061279 34.65844727 84.63720703 C38.69869439 86.2849501 42.86058112 87.62019371 47 89 C47 59.96 47 30.92 47 1 C31.82 1 16.64 1 1 1 Z " fill="#C5A654" transform="translate(170,170)"/>
<path d="M0 0 C25.74 0 51.48 0 78 0 C78 0.33 78 0.66 78 1 C59.85 1 41.7 1 23 1 C23 5.95 23 10.9 23 16 C15.41 16 7.82 16 0 16 C0 10.72 0 5.44 0 0 Z " fill="#EFC560" transform="translate(15,170)"/>
<path d="M0 0 C2.11312879 0.06029176 4.22642379 0.11502723 6.33984375 0.1640625 C11.48071774 0.29532543 16.61349962 0.50176764 21.75 0.75 C21.75 1.08 21.75 1.41 21.75 1.75 C21.03569824 1.70697754 20.32139648 1.66395508 19.58544922 1.61962891 C6.04486246 0.47285993 6.04486246 0.47285993 -6.54931641 4.17138672 C-9.05442542 6.52395982 -11.11932485 9.08106029 -13.22363281 11.79003906 C-16.34488454 15.54373955 -18.34930539 17.17500024 -23.30859375 17.67578125 C-28.00963718 17.77529019 -32.59388837 17.37544783 -37.25 16.75 C-29.66760367 -0.51694667 -16.8850873 -0.84068542 0 0 Z " fill="#F1C660" transform="translate(64.25,138.25)"/>
<path d="M0 0 C15.51 0 31.02 0 47 0 C47 0.33 47 0.66 47 1 C31.82 1 16.64 1 1 1 C1 14.53 1 28.06 1 42 C3.97 42.99 6.94 43.98 10 45 C12.50888976 46.04960607 14.98031245 47.11654397 17.44921875 48.25 C18.11033157 48.54938477 18.7714444 48.84876953 19.45259094 49.15722656 C21.53281307 50.10065943 23.61011534 51.05033844 25.6875 52 C27.0890186 52.63580059 28.4907102 53.27122 29.89257812 53.90625 C31.24495062 54.52048349 32.59716958 55.13505515 33.94921875 55.75 C34.56810471 56.03133789 35.18699066 56.31267578 35.82463074 56.60253906 C39.59036941 58.32494342 43.30630936 60.12831397 47 62 C47 63.65 47 65.3 47 67 C31.20415318 60.63070693 15.61744016 53.7932363 0 47 C0 31.49 0 15.98 0 0 Z " fill="#E5BF5F" transform="translate(108,170)"/>
<path d="M0 0 C5.61 0 11.22 0 17 0 C17 5.28 17 10.56 17 16 C11.39 16 5.78 16 0 16 C0 10.72 0 5.44 0 0 Z " fill="#2E3F75" transform="translate(263,357)"/>
<path d="M0 0 C5.61 0 11.22 0 17 0 C17 5.28 17 10.56 17 16 C11.39 16 5.78 16 0 16 C0 10.72 0 5.44 0 0 Z " fill="#2E3F75" transform="translate(170,357)"/>
<path d="M0 0 C8.66431342 -0.71478997 14.83842438 0.97333504 22.625 4.6875 C23.61628906 5.12255859 24.60757813 5.55761719 25.62890625 6.00585938 C31.03232632 8.50744274 31.03232632 8.50744274 33 10 C33.78271484 12.66723633 33.78271484 12.66723633 34 15 C29.90368531 14.34951226 26.46094681 13.02762536 22.67578125 11.34765625 C20.88624023 10.55391602 20.88624023 10.55391602 19.06054688 9.74414062 C18.4455835 9.46803955 17.83062012 9.19193848 17.19702148 8.9074707 C15.3109633 8.06181098 13.42048126 7.22670056 11.52929688 6.39257812 C2.25606195 2.25606195 2.25606195 2.25606195 0 0 Z " fill="#F5C960" transform="translate(59,194)"/>
<path d="M0 0 C2.31853933 0.92442407 4.62902749 1.86353608 6.9375 2.8125 C7.59685547 3.07353516 8.25621094 3.33457031 8.93554688 3.60351562 C10.66028184 4.319944 12.3349412 5.1540925 14 6 C14.33 6.99 14.66 7.98 15 9 C14.67 9.66 14.34 10.32 14 11 C9.27934033 9.45730076 4.58335908 7.92205381 0 6 C0 4.02 0 2.04 0 0 Z " fill="#F5C960" transform="translate(233,266)"/>
</svg>
